<svg width="200" height="200" viewBox="0 0 200 200" xmlns="http://www.w3.org/2000/svg">
  <defs>
    <!-- Body gradient -->
    <linearGradient id="shadowFill" x1="0%" y1="0%" x2="0%" y2="100%">
      <stop offset="0%" stop-color="#2d2d2d"/>
      <stop offset="100%" stop-color="#000000"/>
    </linearGradient>

    <!-- Eye glow filter -->
    <filter id="eyeGlow">
      <feGaussianBlur in="SourceGraphic" stdDeviation="1.2" result="blur"/>
      <feMerge>
        <feMergeNode in="blur"/>
        <feMergeNode in="SourceGraphic"/>
      </feMerge>
    </filter>

    <!-- Portal gradient -->
    <radialGradient id="portal" cx="50%" cy="100%" r="60%">
      <stop offset="0%" stop-color="#0ff" stop-opacity="0.3"/>
      <stop offset="100%" stop-color="#000" stop-opacity="1"/>
    </radialGradient>

    <!-- Ambient mist -->
    <radialGradient id="mist" cx="50%" cy="50%" r="60%">
      <stop offset="0%" stop-color="#0ff" stop-opacity="0.05"/>
      <stop offset="100%" stop-color="#000" stop-opacity="0"/>
    </radialGradient>
  </defs>

  <!-- Background mist -->
  <rect width="200" height="200" fill="url(#mist)" />

  <!-- Shadow Portal Base -->
  <ellipse cx="100" cy="180" rx="70" ry="18" fill="url(#portal)" />

  <!-- Distant Silhouettes -->
  <g fill="#000" opacity="0.15">
    <circle cx="20" cy="160" r="5"/>
    <circle cx="40" cy="165" r="4"/>
    <circle cx="60" cy="170" r="6"/>
    <circle cx="140" cy="168" r="5"/>
    <circle cx="160" cy="162" r="6"/>
    <circle cx="180" cy="158" r="4"/>
  </g>

  <!-- Background Minions -->
  <g fill="url(#shadowFill)" stroke="#111" stroke-width="1" opacity="0.5">
    <circle cx="30" cy="145" r="8"/>
    <circle cx="170" cy="145" r="8"/>
    <circle cx="50" cy="152" r="9"/>
    <circle cx="150" cy="152" r="9"/>
    <rect x="46" y="160" width="8" height="18" rx="2"/>
    <rect x="146" y="160" width="8" height="18" rx="2"/>
  </g>

  <!-- Eyes for background minions -->
  <g filter="url(#eyeGlow)">
    <circle cx="28" cy="143" r="1.3" fill="#0ff"/>
    <circle cx="32" cy="143" r="1.3" fill="#0ff"/>

    <circle cx="168" cy="143" r="1.3" fill="#0ff"/>
    <circle cx="172" cy="143" r="1.3" fill="#0ff"/>

    <circle cx="48" cy="150" r="1.5" fill="#0ff"/>
    <circle cx="52" cy="150" r="1.5" fill="#0ff"/>

    <circle cx="148" cy="150" r="1.5" fill="#0ff"/>
    <circle cx="152" cy="150" r="1.5" fill="#0ff"/>
  </g>

  <!-- Mid-tier Generals -->
  <g fill="url(#shadowFill)">
    <circle cx="70" cy="130" r="11"/>
    <circle cx="130" cy="130" r="11"/>
    <rect x="64" y="140" width="12" height="22" rx="2"/>
    <rect x="124" y="140" width="12" height="22" rx="2"/>
  </g>

  <!-- Mid-tier Eyes -->
  <g filter="url(#eyeGlow)">
    <circle cx="68" cy="128" r="2" fill="#0ff"/>
    <circle cx="72" cy="128" r="2" fill="#0ff"/>
    <circle cx="128" cy="128" r="2" fill="#0ff"/>
    <circle cx="132" cy="128" r="2" fill="#0ff"/>
  </g>

  <!-- Shadow Monarch (central) -->
  <g fill="url(#shadowFill)" stroke="#111" stroke-width="1.5">
    <circle cx="100" cy="105" r="16"/>
    <rect x="92" y="120" width="16" height="28" rx="2"/>
    <!-- Shadow Blade -->
    <path d="M100 120 L103 88 L97 88 Z" fill="#111"/>
  </g>

  <!-- Monarch Eyes -->
  <g filter="url(#eyeGlow)">
    <circle cx="95" cy="104" r="3" fill="#0ff"/>
    <circle cx="105" cy="104" r="3" fill="#0ff"/>
  </g>
</svg>
