<svg viewBox="0 0 200 200" xmlns="http://www.w3.org/2000/svg">
  <defs>
    <filter id="glow" x="-50%" y="-50%" width="200%" height="200%">
      <feGaussianBlur stdDeviation="5" result="coloredBlur"></feGaussianBlur>
      <feMerge>
        <feMergeNode in="coloredBlur"></feMergeNode>
        <feMergeNode in="SourceGraphic"></feMergeNode>
      </feMerge>
    </filter>
    <linearGradient id="purple-gradient" x1="0%" y1="0%" x2="100%" y2="100%">
      <stop offset="0%" style="stop-color:#7F00FF; stop-opacity:1" />
      <stop offset="100%" style="stop-color:#00A0FF; stop-opacity:1" />
    </linearGradient>
  </defs>
  <g filter="url(#glow)">
    <path d="M 100,20
             C 150,20 180,50 180,100
             S 150,180 100,180
             S 20,150 20,100
             S 50,20 100,20 Z" fill="black" stroke="url(#purple-gradient)" stroke-width="3"/>
    <path d="M 100,50 C 80,80 120,120 100,150" stroke="#7F00FF" stroke-width="1.5" fill="none" opacity="0.7"/>
    <path d="M 70,70 C 90,90 90,110 70,130" stroke="#00A0FF" stroke-width="1" fill="none" opacity="0.6"/>
    <path d="M 130,70 C 110,90 110,110 130,130" stroke="#00A0FF" stroke-width="1" fill="none" opacity="0.6"/>
    <path d="M 100,20 L 105,25 L 100,30 L 95,25 Z" fill="#7F00FF"/>
    <path d="M 180,100 L 175,105 L 170,100 L 175,95 Z" fill="#00A0FF"/>
    <path d="M 100,180 L 105,175 L 100,170 L 95,175 Z" fill="#7F00FF"/>
    <path d="M 20,100 L 25,105 L 30,100 L 25,95 Z" fill="#00A0FF"/>
  </g>
</svg>